/* XPM */
static char *Sprite_enemy_641743003223[] = {
/* columns rows colors chars-per-pixel */
"64 64 220 2 ",
"   c #000000",
".  c #0B0102",
"X  c #010A03",
"o  c #0A0C06",
"O  c #02020A",
"+  c #0A020A",
"@  c #020B0B",
"#  c #0C0B0B",
"$  c #130102",
"%  c #1B0002",
"&  c #11040E",
"*  c #150A0A",
"=  c #1B0009",
"-  c #011102",
";  c #00140F",
":  c #00180D",
">  c #081408",
",  c #111602",
"<  c #010412",
"1  c #0C0212",
"2  c #000D12",
"3  c #00031E",
"4  c #0A0418",
"5  c #030B1A",
"6  c #0B0A12",
"7  c #140C1C",
"8  c #100B11",
"9  c #001219",
"0  c #001F14",
"q  c #001823",
"w  c #00142C",
"e  c #011626",
"r  c #111A29",
"t  c #141E3A",
"y  c #170D28",
"u  c #02252C",
"i  c #09293A",
"p  c #18273A",
"a  c #0F3037",
"s  c #033C3C",
"d  c #0A3B3C",
"f  c #093438",
"g  c #18343B",
"h  c #16362B",
"j  c #06512A",
"k  c #05443B",
"l  c #204035",
"z  c #122D48",
"x  c #0E3B40",
"c  c #0A3C53",
"v  c #21384A",
"b  c #024444",
"n  c #094747",
"m  c #124145",
"M  c #12424E",
"N  c #08514E",
"B  c #014E5B",
"V  c #0C4C56",
"C  c #015B5B",
"Z  c #08585C",
"A  c #11545A",
"S  c #2F594B",
"D  c #305A4C",
"F  c #29555A",
"G  c #01625E",
"H  c #0F665E",
"J  c #07685A",
"K  c #116A58",
"L  c #23695E",
"P  c #005B6C",
"I  c #006A60",
"U  c #026465",
"Y  c #126366",
"T  c #0E7C6A",
"R  c #10786D",
"E  c #16726F",
"W  c #006C71",
"Q  c #146F74",
"!  c #187372",
"~  c #197875",
"^  c #256A66",
"/  c #20726C",
"(  c #267678",
")  c #12817B",
"_  c #578173",
"`  c #087B8B",
"'  c #19788B",
"]  c #1F7994",
"[  c #2E6880",
"{  c #277581",
"}  c #33748A",
"|  c #217C91",
" . c #0D8C8A",
".. c #148382",
"X. c #1A8386",
"o. c #178788",
"O. c #1A8E85",
"+. c #019589",
"@. c #159284",
"#. c #198B96",
"$. c #0A9797",
"%. c #1A9393",
"&. c #1F9798",
"*. c #159B98",
"=. c #228A8D",
"-. c #25848A",
";. c #2B948C",
":. c #2D8D95",
">. c #2E8E9C",
",. c #249F9C",
"<. c #349397",
"1. c #03A393",
"2. c #08A19C",
"3. c #1AA896",
"4. c #25AD9F",
"5. c #36A295",
"6. c #199CA4",
"7. c #1B8AA5",
"8. c #318CA1",
"9. c #289FA7",
"0. c #0BA4A5",
"q. c #09AEA8",
"w. c #14A3A1",
"e. c #03B5A9",
"r. c #19B1A4",
"t. c #09B8BD",
"y. c #14B7B4",
"u. c #28A9A5",
"i. c #2BB2A1",
"p. c #3AB2A8",
"a. c #25AEB2",
"s. c #22BEBB",
"d. c #23B9B6",
"f. c #34B3B2",
"g. c #06C8BA",
"h. c #1AC4B1",
"j. c #17C6BD",
"k. c #22CBAC",
"l. c #26C2B8",
"z. c #00C7C5",
"x. c #01CDC5",
"c. c #0CCFC6",
"v. c #00C7CA",
"b. c #02CDCB",
"n. c #0ACCCC",
"m. c #0CC5C8",
"M. c #1BCCCC",
"N. c #17C8C6",
"B. c #00D3C5",
"V. c #00DCC3",
"C. c #01D4CD",
"Z. c #0CD3CB",
"A. c #03D9CD",
"S. c #0ADCCC",
"D. c #0BD9C4",
"F. c #13D4CC",
"G. c #14DACB",
"H. c #1ED9CF",
"J. c #15D0C5",
"K. c #0BC3D3",
"L. c #02CCD2",
"P. c #0CCDD1",
"I. c #0DCCDA",
"U. c #00C5D2",
"Y. c #13CCD4",
"T. c #18CED5",
"R. c #1CCCDE",
"E. c #14CBDA",
"W. c #01D4D5",
"Q. c #0CD4D3",
"!. c #01DCD5",
"~. c #0BDFD5",
"^. c #01D5DA",
"/. c #0AD6DA",
"(. c #02DADC",
"). c #09DCDC",
"_. c #12D6D4",
"`. c #1AD6D6",
"'. c #10DFD3",
"]. c #17D3DC",
"[. c #18D8DB",
"{. c #2CCCC6",
"}. c #21CBC7",
"|. c #36CDC6",
" X c #2CD8CE",
".X c #27D3CB",
"XX c #30D5CE",
"oX c #3DCDD8",
"OX c #20D0D0",
"+X c #22DAD4",
"@X c #29D8D4",
"#X c #02E3CD",
"$X c #00EACC",
"%X c #13E6C8",
"&X c #00E2D5",
"*X c #00E3D9",
"=X c #03E8D9",
"-X c #13E1D6",
";X c #14E2D7",
":X c #23E4D4",
">X c #27E6D8",
",X c #03C8E5",
"<X c #12CFE3",
"1X c #02D5E4",
"2X c #0AD5E2",
"3X c #01DBE2",
"4X c #0ADBE2",
"5X c #01D1EE",
"6X c #00DCEA",
"7X c #0FD1EA",
"8X c #10D2E3",
"9X c #14DDEB",
"0X c #1CD9E2",
"qX c #27D6E7",
"wX c #2AD1E1",
"eX c #28D5FD",
"rX c #04E4E2",
"tX c #08E7E4",
"yX c #25E2E4",
"uX c #48D1C9",
/* pixels */
"                                                    o     . # # O O O O O X O O                                                 ",
"                                                  X .     o   X . . o . . . . .                                                 ",
"                                                X       +   X : O O < O O O . +                                                 ",
"                                                      + X X 0 _ s.h.l.s.d.a.u.9.                                                ",
"                                                  . X .     O u.V.C.E.^.1XW.=X' .         + 5                                   ",
"                                                      .     < 4.!.4XE./.W.x.c.#.X   X #   X                                     ",
"                                                  . X .     2 4.6XW.W.Y.>X%Xd.` X   + O @ * %                                   ",
"                                                    O . .   < 4.eX2X-X~ b k v ( 3.&.9.a.i.L                                     ",
"                                                      .     < 4.7Xx.$XN O   < R ;X_.L.W.+X-.O                                   ",
"                                                    X . X   < 4.<Xz.>XA O + 9 ^ .X@XyX'.{.{ 3                                   ",
"                                                  . X .     < i.(.b.[.j.f.f.r.' w w w q r 7 &                                   ",
"                                                      $   X O u.L.^.E.!.!.A.&X' .     $ $   -                                   ",
"                                                @ +     . $ 2 i.5X2XA.A.P.^.L.`   + . . @                                       ",
"                                                O +   X   + 9 5.=XQ.S.-XP.W.n.=.  X                                             ",
"                                                .     X   . O ^ R I ~ y.P.(.V. .X     X   + &                                   ",
"                                                . X   X   + O 9 * X y 7.L.).$Xo.*     X   + 8                                   ",
"                                                $   X         +     < $.(.K.A.} . . .       O                                   ",
"                                                +     o   X X .   o O 1.-XT.Z.-.< < X                                           ",
"                                                o     $ .   > $   %   K O.,.+.@.C Y f   $   #                                   ",
"                                                8     $ $   X . - % $ > O < 9 ^ @XuX/ @ .   +                                   ",
"                                                                  . O . X   + R 2XS.U O 6 + -                                   ",
"                                                                  X O .     O R 4X-XG O .   X                                   ",
"                                                                    O       O R 1X'.J .     X                                   ",
"                                                                    O .     O R ^.F.K . O + +                                   ",
"                                                                  . O .     O R 9XH.C O @ O +                                   ",
"                                                                    O .     O R 9XQ. .V Z x +                                   ",
"                                                                  . O         R L.!.R.uX}./ O                                   ",
"                                                                  X O . X   O R 4X&XW./.B.) @                                   ",
"                    #   X X       .   . X O . X X .   X   O X       1 +   $ O ! 2XW.A.W./...                                    ",
"                    o   O O       6   & f i t a i p u u p g g =   O 6 O   . O R 2XW.A.W./.) O                                   ",
"                            . +     X n h.B.Z.S.n.c.D.G.`.B.h.d   O 1 + X   O R 2XW.S.W./...O                                   ",
"                            . +   . . m @X*X(.^.4X(.!.C.Q.A.XXp .   + . X . O ~ /.W.Q.W./...                                    ",
"                  X   +   .       . . d .X&XL.W.1XW.A.b.C.A..Xp   X +   -   @ ) 2XC.A././.) O                                   ",
"                          o   X l q.1.e.&XW.L.C.(.W.B.B.I.(.!.0.3.2.*.2.1.,.*.x.2XW.W.W./...X                                   ",
"                          #   X D R.Z.Q.!.(./.=X1X0XL.^.8X2XW.C.S.W.(.tXA.`.L.3X2XW.W.Q./.)                                     ",
"                        .   . O H ).^.W.L.W.W.W.W.W.W.W.W.W.W.W.W.Q.W.W.W.W.W.W.b.W.b.n.A.o.4                                   ",
"                        +   . O H /.W.W.W.W.W.(.W.^.L.W.W.W.W.W.W.W./.W.W.W.W.W.(./.T.<X_.O.<                                   ",
"                  .   .   X . X H (.W.W.L.W.W.W.W.W.W.W.W.^.W.W.W.W.W.W.W.W.W.W.W.W.L.I.n...O                                   ",
"                      O .   . O H ).W.W.W.W.W.(.W.W.W.W.W.W.W.W.W.W.W.W.W.W.W.W.L.W.W.(.!.O.O                                   ",
"                  . X       . O H ).(.W.W.Q.W.W.W.^.W.W.W.W.W.W.W.W.W.W.W.(.W.W.Q.).C.z.j.~ @                                   ",
"                  .     +   . O H ).(.W.W.L.W.W.W.W.W.W.W.W.W.W.W.W./.W.W.W.W.W.4X[.+.P A d O                                   ",
"                          X . O H /.W.W.W.W.W./.W.W.W.W.W.W.W.W.W.W.W.W.W.W.W./.1XM.C   O X                                     ",
"                  .   . +   . O H (.W.W.W.W.W.W.W.W.W.W.W.W.W.W.W.W.W.W.W.W.W.W.1X+XK X o O +                                   ",
"                    @       X - D yXD.b.W.2XK.W.R.C.m.T.A.B.wXK.x.Z.B.A.W.n.Y.B.F.|.! @ .   o                                   ",
"                  O       +   X h ( Q #.n.^.W.!.(.&XW.*X=XW./.W.Z.W.W.^.^.W.Q.t.W ! d   $   @                                   ",
"                  X   X . $ X X O O @ b N.W.).!.rXrX!.L.W.b.b.&XI.(.W.I.L.!.Y.7.3 e O     O X                                   ",
"                  X     .   +     X   n >X!.4Xb.b.b.L.U.I.E.b.&X).(.(./.^.=XQ.| + . . .   X O                                   ",
"                        .     &   . . m XXW./.b.H.F.W.(.(.).&X&X_.!.!._.B.$XD.' $ .   X       O                                 ",
"                              & +   . p <.=.8.>.;.o.0.P.W.W.G.*.:.%.#.:.=.*.;.F X     @     .                                   ",
"                        X     o   O     9 < 1 +   O B M.Q.x.s.c O X O < O O +     X   O   .                                     ",
"                        X @       $ . $ X   $ , . $ b J.A.V.{.z   .   . . . o X   +   + .                                       ",
"                                    X     X         M T.A.W.`.a X                                                               ",
"                                        O .     O   M T.A.C.`.a                                                                 ",
"                                                  . M T.A.C.`.a           O X                                                   ",
"                                    X             . M T.C.C.`.a X                                                               ",
"                                              X   X M T.A.L.[.a   .                                                             ",
"                                          O       . M T.A.C.`.a               O                                                 ",
"                                                  . M T.A.W.`.a                                                                 ",
"                                            X       c T.A.L.`.a               +                                                 ",
"                  .     X     O @               X o j N.,XT.s.B +   X $ . : @ O +   X X O 1 7                                   ",
"                                @ O O + O + O + 3 . N qX5Xv.;Xl.l.l.p.F ; @   %       X                                         ",
"                    o             .   .         4 . b `.^.g.D.Z.5XrX[.P < O   . *   . . .   X                                   ",
"                          o #     X X X X X X X X $ k j.=X4X3X,X4X&X%XZ   .   X X O < < X O 2                                   ",
"                        O o o   X               X + M k.%XS.W.Y.n.B.g.U < O O ; - . $ $   $ =                                   "
};
