/* XPM */
static char *Sprite_egg_641743001556[] = {
/* columns rows colors chars-per-pixel */
"64 64 37 1 ",
"  c black",
". c #010101",
"X c #020202",
"o c gray1",
"O c #040404",
"+ c gray2",
"@ c #060606",
"# c #070707",
"$ c gray3",
"% c gray4",
"& c #0B0B0B",
"* c #0C0C0C",
"= c #151515",
"- c gray10",
"; c gray68",
": c gray70",
"> c gray",
", c #C0C0C0",
"< c #C1C1C1",
"1 c gray76",
"2 c gray77",
"3 c #C5C5C5",
"4 c #C6C6C6",
"5 c gray78",
"6 c #C8C8C8",
"7 c gray79",
"8 c #CACACA",
"9 c #CBCBCB",
"0 c gray80",
"q c #CDCDCD",
"w c #CECECE",
"e c gray81",
"r c #D0D0D0",
"t c #D2D2D2",
"y c LightGray",
"u c #DADADA",
"i c gray86",
/* pixels */
"                                                                ",
"                                                                ",
"                                                                ",
"                                                                ",
"                                                                ",
"                                                                ",
"                                                                ",
"                                                                ",
"                                                                ",
"                                                                ",
"                & @                                             ",
"                  066666666666666666666                         ",
"                  500000000000000000000                         ",
"                  566666666666666666666                         ",
"                @ 666666666666666666666                         ",
"                  666666666666666666666                         ",
"              * & 066666666666666666666     @                   ",
"               @ @566666666666666666666                         ",
"             -&&  666666666666666666666                         ",
"             6556666666666666666666666666666666666              ",
"             6556666666666666666666666666666666666              ",
"             6556666666666666666666666666666666666              ",
"     @       ut56666666666666666666666666666666666      @ &     ",
"     &=      ;,t6666666666666666666666666666666666       @      ",
"      t0000005,>66666666666666666666666666666666660000005       ",
"    @ 566666666666666666666666666666666666666666666666666 @     ",
"      566666666666666666666666666666666666666666666666666       ",
"      566666666666666666666666666666666666666666666666666       ",
"      566666666666666666666666666666666666666666666666666 @     ",
"      566666666666666666666666666666666666666666666666666       ",
"      666666666666666666666666666666666666666666666666666       ",
"    @ 666666666666666666666666666666666666666666666666666       ",
"      566666666666666666666666666666666666666666666666666       ",
"      566666666666666666666666666666666666666666666666666 @     ",
"     @566666666666666666666666666666666666666666666666666 @     ",
"      566666666666666666666666666666666666666666666666666       ",
"    @ 666666666666666666666666666666666666666666666666666       ",
"      566666666666666666666666666666666666666666666666666       ",
"      566666666666666666666666666666666666666666666666666 @     ",
"      566666666666666666666666666666666666666666666666666       ",
"     @566666666666666666666666666666666666666666666666666 @     ",
"      566666666666666666666666666666666666666666666666666       ",
"      566666666666666666666666666666666666666666666666666 @     ",
"      566666666666666666666666666666666666666666666666666       ",
"    & 6555,55t0566666666666666666666666666666666665555,55       ",
"    * 5666665u6,66666666666666666666666666666666665566660       ",
"     @       u056666666666666666666666666666666666      @ &     ",
"             6566666666666666666666666666666666666              ",
"             6566666666666666666666666666666666666              ",
"             6566666666666666666666666666666666666              ",
"             :606,66666666666666666666666666666666              ",
"               & @566666666666666666666                         ",
"              * @ t66666666666666666666        @                ",
"                @ 556666666666666666666                         ",
"                  566666666666666666666                         ",
"                  566666666666666666666                         ",
"                  555,55555555556555555                         ",
"                @ 056666555656666666556                         ",
"                @                                               ",
"                                                                ",
"                                                                ",
"                                                                ",
"                                                                ",
"                                                                "
};
