/* XPM */
static char *Sprite_exit_64_21743003255[] = {
/* columns rows colors chars-per-pixel */
"64 64 3 1 ",
"  c black",
". c #DD00DD",
"X c magenta",
/* pixels */
"              XXXXXX.                          XXXXXX           ",
"              XXXXXX.                          XXXXXX           ",
"              XXXXXX.                          XXXXXX           ",
"              XXXXXX.                          XXXXXX           ",
"              XXXXXXXXXXXXXXXXXXXXXXXXXXXXXXXXXXXXXXX           ",
"              XXXXXXXXXXXXXXXXXXXXXXXXXXXXXXXXXXXXXXX           ",
"              XXXXXXXXXXXXXXXXXXXXXXXXXXXXXXXXXXXXXXX           ",
"              XXXXXX.                          XXXXXX           ",
"              XXXXXX.                          XXXXXX           ",
"              XXXXXX.                          XXXXXX           ",
"              XXXXXX.                          XXXXXX           ",
"              XXXXXX.                          XXXXXX           ",
"              XXXXXX.                          XXXXXX           ",
"              XXXXXX.                          XXXXXX           ",
"              XXXXXX.                          XXXXXX           ",
"              XXXXXX.                          XXXXXX           ",
"              XXXXXX.                          XXXXXX           ",
"              XXXXXX.                          XXXXXX           ",
"              XXXXXX.                          XXXXXX           ",
"              XXXXXX.                          XXXXXX           ",
"              XXXXXX.                          XXXXXX           ",
"              XXXXXX.                          XXXXXX           ",
"              XXXXXX.                          XXXXXX           ",
"              XXXXXX.                          XXXXXX           ",
"              XXXXXX.                          XXXXXX           ",
"              XXXXXX.                          XXXXXX           ",
"              XXXXXX.                          XXXXXX           ",
"              XXXXXX.                          XXXXXX           ",
"              XXXXXX.                          XXXXXX           ",
"              XXXXXX.                          XXXXXX           ",
"              XXXXXX.                          XXXXXX           ",
"              XXXXXXXXXXXXXXXXXXXXXXXXXXXXXXXXXXXXXXX           ",
"              XXXXXXXXXXXXXXXXXXXXXXXXXXXXXXXXXXXXXXX           ",
"              XXXXXXXXXXXXXXXXXXXXXXXXXXXXXXXXXXXXXXX           ",
"              XXXXXX.                          XXXXXX           ",
"              XXXXXX.                          XXXXXX           ",
"              XXXXXX.                          XXXXXX           ",
"              XXXXXX.                          XXXXXX           ",
"              XXXXXX.                          XXXXXX           ",
"              XXXXXX.                          XXXXXX           ",
"              XXXXXX.                          XXXXXX           ",
"              XXXXXX.                          XXXXXX           ",
"              XXXXXX.                          XXXXXX           ",
"              XXXXXX.                          XXXXXX           ",
"              XXXXXX.                          XXXXXX           ",
"              XXXXXX.                          XXXXXX           ",
"              XXXXXX.                          XXXXXX           ",
"              XXXXXX.                          XXXXXX           ",
"              XXXXXX.                          XXXXXX           ",
"              XXXXXX.                          XXXXXX           ",
"              XXXXXX.                          XXXXXX           ",
"              XXXXXX.                          XXXXXX           ",
"              XXXXXX.                          XXXXXX           ",
"              XXXXXX.                          XXXXXX           ",
"              XXXXXX.                          XXXXXX           ",
"              XXXXXX.                          XXXXXX           ",
"              XXXXXX.                          XXXXXX           ",
"              XXXXXXXXXXXXXXXXXXXXXXXXXXXXXXXXXXXXXXX           ",
"              XXXXXXXXXXXXXXXXXXXXXXXXXXXXXXXXXXXXXXX           ",
"              XXXXXXXXXXXXXXXXXXXXXXXXXXXXXXXXXXXXXXX           ",
"              XXXXXX.                          XXXXXX           ",
"              XXXXXX.                          XXXXXX           ",
"              XXXXXX.                          XXXXXX           ",
"              XXXXXX.                          XXXXXX           "
};
