/* XPM */
static char *Sprite_exit_641743001537[] = {
/* columns rows colors chars-per-pixel */
"64 64 189 2 ",
"   c #AB1E05",
".  c #BB1D04",
"X  c #BB2301",
"o  c #BF2E00",
"O  c #CB0E03",
"+  c #D20F03",
"@  c #D80807",
"#  c #C61200",
"$  c #CA1502",
"%  c #C51E01",
"&  c #CC1F01",
"*  c #CF140B",
"=  c #CB1C0C",
"-  c #D11703",
";  c #DF1602",
":  c #D01D04",
">  c #D31209",
",  c #D41C0D",
"<  c #DB1608",
"1  c #DA0910",
"2  c #D91712",
"3  c #D51611",
"4  c #C42200",
"5  c #CB2202",
"6  c #C52B01",
"7  c #C92900",
"8  c #CC200A",
"9  c #D22200",
"0  c #D9240E",
"q  c #D02A0A",
"w  c #C43300",
"e  c #CD3400",
"r  c #C53A01",
"t  c #CB2016",
"y  c #D62013",
"u  c #D43807",
"i  c #BF4100",
"p  c #B54F00",
"a  c #D84600",
"s  c #CB5500",
"d  c #D35808",
"f  c #D35900",
"g  c #C36500",
"h  c #D06F00",
"j  c #C67300",
"k  c #C67B06",
"l  c #DA7D13",
"z  c #0ABE02",
"x  c #09BE0F",
"c  c #01C700",
"v  c #0AC402",
"b  c #01CA01",
"n  c #0BCA01",
"m  c #02C50B",
"M  c #0BC50A",
"N  c #02C90B",
"B  c #10C700",
"V  c #1EC600",
"C  c #1AC900",
"Z  c #11C80E",
"A  c #13CB00",
"S  c #00D101",
"D  c #00D00F",
"F  c #02C511",
"G  c #00CC14",
"H  c #02C41A",
"J  c #01CB1A",
"K  c #24CA00",
"L  c #3CC500",
"P  c #34C902",
"I  c #03CA23",
"U  c #00CC2A",
"Y  c #02CD35",
"T  c #03C437",
"R  c #4AC502",
"E  c #44CA00",
"W  c #58CA00",
"Q  c #5AC707",
"!  c #62C300",
"~  c #66CE00",
"^  c #6BC702",
"/  c #70C800",
"(  c #7ECB01",
")  c #77C703",
"_  c #00C740",
"`  c #02C851",
"'  c #00C85A",
"]  c #09CB59",
"[  c #00CC60",
"{  c #00C66F",
"}  c #01CA74",
"|  c #02C67D",
" . c #00C87C",
".. c #BF8C00",
"X. c #BEBF00",
"o. c #B8BF0F",
"O. c #CE8000",
"+. c #D08707",
"@. c #CF9404",
"#. c #D59403",
"$. c #D89707",
"%. c #DE960E",
"&. c #EE8917",
"*. c #D9AD06",
"=. c #CABE00",
"-. c #D6BF01",
";. c #DCBE08",
":. c #D0B810",
">. c #DBBB14",
",. c #D7BA18",
"<. c #DDB51F",
"1. c #E3BD10",
"2. c #8EC508",
"3. c #99CC05",
"4. c #A5C708",
"5. c #BEC400",
"6. c #B5CF01",
"7. c #BDCC00",
"8. c #B6C30B",
"9. c #B6C509",
"0. c #A7D400",
"q. c #B5D300",
"w. c #BCD700",
"e. c #B7DE00",
"r. c #BEDA00",
"t. c #BCD20E",
"y. c #BCC716",
"u. c #C4C401",
"i. c #CCC501",
"p. c #C4CB01",
"a. c #CCC900",
"s. c #C7C60C",
"d. c #CCC30B",
"f. c #CACB0B",
"g. c #C4CB0B",
"h. c #D3C401",
"j. c #DAC403",
"k. c #D3CB02",
"l. c #DBCA04",
"z. c #D4C308",
"x. c #DBC609",
"c. c #D7CA0D",
"v. c #C4D201",
"b. c #CBD303",
"n. c #C3DA00",
"m. c #CCD10B",
"M. c #C6DD09",
"N. c #D2D304",
"B. c #DCD401",
"V. c #D4D508",
"C. c #C3C312",
"Z. c #CCC510",
"A. c #CDC518",
"S. c #C7CB16",
"D. c #DCC315",
"F. c #D4C315",
"G. c #CFD41F",
"H. c #D2DA13",
"J. c #E5C402",
"K. c #E0C907",
"L. c #E0C50D",
"P. c #E9C70E",
"I. c #E5C909",
"U. c #E6C815",
"Y. c #01BFBD",
"T. c #02C683",
"R. c #02C589",
"E. c #01C69B",
"W. c #00C6A2",
"Q. c #00CFA2",
"!. c #00C6B5",
"~. c #02C5BC",
"^. c #00CDBC",
"/. c #05BFD6",
"(. c #01C4C2",
"). c #01CCC4",
"_. c #01C7CC",
"`. c #00CACC",
"'. c #02D0C4",
"]. c #00D1CD",
"[. c #03C6D3",
"{. c #01CAD3",
"}. c #03C5DA",
"|. c #02CADD",
" X c #0BCCDD",
".X c #00D0D1",
"XX c #03C5E4",
"oX c #04C9E6",
"OX c #00C6EC",
/* pixels */
"  & % & & 5 & & & & & & & & & & X 0 6 v.p.a.a.a.a.a.a.a.a.a.a.a.a.a.p.a.i.a.P.W c v c c c c c c c c c c c c c c G c m D `.`.`.`.",
"  & 8 & & & & & & & & & & & & & 5 , s n.p.a.a.a.a.a.a.a.a.a.a.a.a.a.a.a.a.a.s.E c v b c c c c c c c c c c c c c m c b Y `.`.`.`.",
". & 5 & & & & & & & & & & & & 5 5 + @.f.a.a.a.a.a.a.a.a.a.a.a.a.a.a.i.p.i.k.2.K m c b c c c c c c c c c c c c b c c c T.`.`.`.`.",
"% & 4 & & & & & & & & 5 & & & & 4 1 h.f.h.a.a.a.a.a.a.a.a.a.a.a.a.a.a.a.a.a.Q v M c b c c c c c c c c c c c c c v c c (.`.`.`.`.",
"% : 5 & & & & & & & 5 & & & & & % ; M.-.i.a.a.a.a.a.a.a.a.a.a.a.a.a.j.q.a.I.B v c c c c b c c c c c c c c c c c F v b }.`.`.`.`.",
"% & & & & & & 5 5 & : & & & 5 & & 5 v.x.k.a.a.a.a.a.a.a.a.a.h.a.a.a.h.6.a.x.n v c c c c c c c c c c b c c c c c N c J |.`.`.`.`.",
"= & 5 & & & & & & & & & & & & & O p p.k.b.a.a.a.a.a.a.a.a.a.a.a.a.a.a.7.a.d.v c c c b c c c c c c c c c c c c c c c ` {.`.`.`.`.",
"9 % 5 & & & & & & & & & & & & & @ ..N.k.p.a.a.a.a.a.a.a.a.a.a.a.a.a.p.a.p.o.c c b c c c c c c c c c c c c c c c c c T.{.`.`.`.`.",
"& & & & & 5 & & & & & & - 9 & & 6 :.u.k.p.a.a.a.a.a.a.a.a.a.a.a.a.a.v.a.J.! c c c c c c c c c c c c c c c c c c c m Y.{.`.`.`.`.",
"& 5 & & & & & & & & & & 5 & 5 $ s Z.=.a.f.a.a.a.a.a.a.a.a.a.a.a.a.a.v.k.J.R c c c c c c c c c c c c c c c c c c c m (.{.`.`.`.`.",
"& & & & & & & & & & & & % % 9 & $.b.-.p.s.a.a.a.a.a.a.a.a.a.a.a.a.a.p.b.h.V c c c c c c b c c c c c c c c c c c b H `.`.`.`.`.`.",
"& & & & & & & & & & & 5 = & : % *.n.;.7.Z.a.a.a.a.a.a.a.a.a.a.a.a.a.a.f.h.v c c b c c c c c c c c c c c c c c c m I ).).`.`.`.`.",
"& & & & & 5 & & & & & & : : & 6 x.e.1.7.:.a.a.a.a.a.a.a.a.a.a.a.a.a.k.b.=.c c c c c c c c c c c c c b c c c c c N I ].).`.`.`.`.",
"& & 5 & & & & & & & & & & & % % V.a.a.a.a.a.a.a.a.a.a.a.a.a.a.a.a.a.h.K.y.c c c c c c c b c c c c c c c c c c c x  .)._.`.`.`.`.",
"& & & & & & & & 5 & & & & $ q 6 k.a.a.a.a.a.a.a.a.a.a.a.a.a.a.a.a.a.h.l./ c c c c c c c c c c c c c c c c c c c m W.).`.`.`.`.`.",
"& & & & & & & & & & & & 9 - 7 f a.a.a.a.u.a.a.a.a.a.a.a.a.a.a.a.a.a.a.l.K M c c c c c c c c c c c c c c c c c v m _.`.).`.`.`.`.",
"& & & & & & 5 & & & & & 9 , % &.i.i.i.a.i.a.a.a.a.a.a.a.a.a.a.a.a.a.a.k.c M c c c c c c c c c c c c c c c c c c m oX).).`.`.`.`.",
"& & & & & & & & & & & & , : < t.a.a.a.a.a.a.a.a.a.a.a.a.a.a.a.a.a.a.;.k.c c c c c c c b c c c c c c c c c c c c U  X`.|.`.`.`.`.",
"& & & & & & & & & & 5 & 8 9 # H.a.a.a.a.a.a.a.a.a.a.a.a.a.a.a.a.a.a.h.4.c c c c c c c c c c c c c c b c c c c c ' .X{.{.`.`.`.`.",
"& 5 & & & & & & & & & & 4 4 7 b.a.a.a.a.a.a.a.a.a.a.a.a.a.a.a.a.a.a.a.^ m c c c c c c c c c c b c c c c m c c m Q.).XX`.`.`.`.`.",
"& & & & & 5 & & & & & & 4 X a p.a.a.a.a.a.a.a.a.a.a.a.a.a.a.a.a.a.a.p.R N v c c c c c c c c c c c c c c c b m H '.^.XX`.`.`.`.`.",
"& & 5 & & & & & & & & & 2 # k a.a.a.a.a.a.a.a.a.a.a.a.a.a.a.a.a.a.a.k.C Z n c c c c b c c c c c c c c b b b c } {.[.`.`.`.`.`.`.",
"& & & & & & : 5 & & & & , $ @.a.a.a.a.a.a.a.a.a.a.a.a.a.a.a.a.i.a.a.B.v M c c c c c c c c c c c c c c c m b c R.{.`.`.`.`.`.`.`.",
"& & & & & & & & & 5 & & & $ k.-.a.a.a.a.a.a.a.a.a.a.a.a.a.a.a.a.a.a.g.v b b c c c c c c c c c c c c c c m c c ~.{.[.`.`.`.`.`.`.",
"& & & & & & & & & & & & & # n.>.a.a.a.a.a.a.a.a.a.a.a.a.a.a.a.a.a.a.8.b c c c c c c c c c c c c c c c c m c c OX{._.`.`.`.`.`.`.",
"& & & 5 & & & & & & & 5 X w g.i.a.a.a.a.a.a.a.a.a.a.a.a.a.a.b.h.q.7.Q c N c c c c c c c c c c b c c c c c c S  X`.`.`.`.`.`.`.`.",
"& & & & & 5 & & & & & & 7 s f.a.a.a.a.a.a.a.a.a.a.a.a.a.a.a.p.h.p.a.L m N c c c c c c c c c c c c c c c c c Y `.`.`.`.`.`.`.`.`.",
"& & & & & & & & & & & & 5 +.p.p.a.a.a.a.a.a.a.a.a.a.a.a.a.a.a.a.l.m.n b b c c c c c c c c c c c c c c c c c R.`.`.`.`.`.`.`.`.`.",
"& & & & & & & & & & & & $ >.k.7.a.a.a.a.a.a.a.a.a.a.a.a.a.a.=.b.x.t.N c c b c c c c c c c c c c c c c c c c }.).`.`.`.`.`.`.`.`.",
"& & & & 5 & & & & & 5 : @ p.u.j.i.a.a.a.a.a.a.a.a.a.a.a.a.a.x.h.h.F.c c c c c c c c c c c c c c c c c c b c XX[.`.`.`.`.`.`.`.`.",
"& & & & : & & & & & - - - N.m.h.a.a.a.a.a.a.a.a.a.a.a.a.a.a.j.k.a.4.c c c c c c c c c c c c c c c c c c N N XX{.`.`.`.`.`.`.`.`.",
"5 & & & & & 5 & & & : & r b.m.k.a.a.a.a.a.a.a.a.a.a.a.a.a.a.a.a.g.Q c c c c c c c c c c c c c c c c c c N _ {.[.`.`.`.`.`.`.`.`.",
"& & & & & & & & & & & & k w.f.B.a.a.a.a.a.a.a.a.a.a.a.a.a.a.p.p.8.A c c c c c c c c c c b c c c c c b c m { {.`.`.`.`.`.`.`.`.`.",
"5 & & & & & & & & & & $ $.7.f.B.a.a.a.a.a.a.a.a.a.a.a.a.a.a.p.7.9.b c c c c c c c c c c c c c c c c c c m | .X[.`.`.`.`.`.`.`.`.",
"& & & & 5 & & & % & - 1 h.a.a.a.a.a.a.a.a.a.a.a.a.a.a.a.a.a.l.B.! b c c c c c c c c c c c c c c c c c c c /.).).`.`.`.`.`.`.`.`.",
"& & & & & & & & % & > , V.a.a.a.a.a.a.a.a.a.a.a.a.a.a.a.a.a.k.k.L c c c c c c c c c c c c c c c c c c c c [.).).`.`.`.`.`.`.`.`.",
"& & & & & & & & 5 & O 6 k.a.a.a.h.a.a.a.a.a.a.a.a.a.a.a.a.a.p.l.n N c c b c c c c c c c c b c c c c c c N {.).).`.`.`.`.`.`.`.`.",
"& & & & & & 5 & 7 $ > r u.k.i.i.a.a.a.a.a.a.a.a.a.a.a.a.a.a.7.K.c N c b c c c c c c b c c c c c c c c c G ].)._.`.`.`.`.`.`.`.`.",
"& & & 5 & & & & 2 X * k a.a.a.a.a.a.a.a.a.a.a.a.a.a.a.a.a.a.u.:.b c c c c c c c c c c c c c c c c c b c T.].).}.`.`.`.`.`.`.`.`.",
"& & & & & & & 5 < q 6 <.a.a.a.a.a.a.a.a.a.a.a.a.a.a.a.a.a.a.h.( N c c c c c c c c c c c c c c c c c c c E.]._.[.`.`.`.`.`.`.`.`.",
"& & & & & & & & : y g m.k.a.a.a.a.a.a.a.a.a.a.a.a.a.a.a.a.a.j.K N m c c c c c c c c c c c c c c c c c c ~.'.[.{.`.`.`.`.`.`.`.`.",
"& & & & & & 5 & 5 3 $.w.a.a.a.a.a.a.a.a.a.a.a.a.a.a.a.a.a.a.J.b N M c c c c c c c c c c c c c c c c c c `.).[.`.`.`.`.`.`.`.`.`.",
"& & 5 & & & & & 5 # ,.0.a.a.a.a.a.a.a.a.a.a.a.a.a.a.a.a.a.i.U.S v S c c c c c c c c c c c c c b N b c H `.`.`.{.`.`.`.`.`.`.`.`.",
"& & & & & & & & 5 # D.q.a.a.a.a.a.a.a.a.a.a.a.a.a.a.a.a.a.a.c.b v S c c c c c c c c c c c c c b c m c T `.`.).`.`.`.`.`.`.`.`.`.",
"& & & & & & & & 5 % N.n.a.a.a.a.a.a.a.a.a.a.a.a.a.a.a.a.a.a.3.c c b c c c c c c c c c b c c c b c m c T.{.`.`.`.`.`.`.`.`.`.`.`.",
"& & & 5 & & & 5 5 e r.a.a.i.a.a.a.a.a.a.a.a.a.a.a.a.a.a.a.a.~ b c c c c c c c c c c c c c c c b c m c (.`.`.`.`.`.`.`.`.`.`.`.`.",
"& & & & & & & & t h p.P.a.a.a.a.a.a.a.a.a.a.a.a.a.h.a.i.i.h.K z S c c c c c c c c c c c c c c b b v b {.`.`.`.`.`.`.`.`.`.`.`.`.",
"& & & & & & & & = %.b.;.a.a.a.a.a.a.a.a.a.a.a.a.a.i.a.a.a.k.C z S c c c c c c c c c c c c c c c b c N {.`.`.`.`.`.`.`.`.`.`.`.`.",
"& 5 : & & & & & & >.N.u.a.a.a.a.a.a.a.a.a.a.a.a.a.a.a.a.k.k.v z S v c c c c c c c c c c c c c c b c Y ].`.`.`.`.`.`.`.`.`.`.`.`.",
"& & & & & & & & - b.z.p.a.a.a.a.a.a.a.a.a.a.a.a.a.a.h.a.a.7.c m b v c c c c c b c c c c c c c m b S ] ].`.`.`.`.`.`.`.`.`.`.`.`.",
"& & 5 & & & & & 7 b.q.p.a.a.a.a.a.a.a.a.a.a.a.a.a.i.c.p.l.( c c c c c c c c c c c c c c c c c c v S ~.^.`.`.`.`.`.`.`.`.`.`.`.`.",
"& & & & & & & & f b.7.b.a.a.a.a.a.a.a.a.a.a.a.a.a.k.h.p.l.W c c c c c c c c c c c c c c c c c c v U ^.^.`.`.`.`.`.`.`.`.`.`.`.`.",
"& & & & & & & & #.p.a.p.a.a.a.a.a.a.a.a.a.a.a.a.a.k.i.a.c.K c c c c c c c c c c c c c c c c c b c  .`.).`.`.`.`.`.`._.`.`.`.`.`.",
"& & & 9 5 & & & A.a.l.u.a.a.a.a.a.a.a.a.a.a.a.a.a.h.b.a.d.b c c c c c c c c c c c c c c c c c G c (.{.(.`.`.`.`.`.`.`.`.`.`.`.`.",
"& & & & & 5 & & G.a.j.5.a.a.a.a.a.h.a.a.a.a.a.a.a.h.a.h.d.S c c c c c c c c c c c c c c c c c m c [.{._.`.`.`.`.`.`.`.`.`.`.`.`.",
"& & & & - 5 % O U.7.h.h.a.a.a.a.a.a.a.a.a.a.a.a.a.a.x.-.p.m c c c c c c c c c c c c c c c c c c c }.oX`.`.`.`.`.`.`.`.`.`.`.`.{.",
"& & & 5 5 , , 7 V.5.j.z.a.a.a.a.a.a.a.a.a.a.a.a.a.i.a.k.2.c c c c c c c c c c c c c c c c c c c U  X X'.`.`.`.`.`.`.`.`.`.`.`.`.",
"& 5 & , 6 , , d a.i.c.a.a.a.a.a.a.a.a.a.a.a.a.a.a.s.v.S.K m c c c c c c c c c c c c c c c c c v ' {.`.`.`.`.`.`.`.`.`.`.`._.`._.",
"& & & 2 e 2 , l 5.z.b.u.a.a.a.a.a.a.a.a.a.a.a.a.a.s.q.y.c v c c c c b c c c c c c c c c b c c c } {.).`.`.`.`.`.`.`.`.`._.`.`.`.",
"& & & X = 4 $ p.a.a.a.a.a.a.a.a.a.a.a.a.a.a.a.a.a.a.a./ c c c c c c c c c b c c c c c c c c c c !.)._.{.`.`.`.`.`.`.`.`.).`._.`.",
"& & & 7 * & % N.a.a.a.a.a.a.a.a.a.a.a.a.a.a.a.a.a.a.l.L c b c c c c c c c c c c c c c c c c v N ).`.`.`.`.`.`.`.`.`.`.`.).`.`.`.",
"& & 8 9 , # 5 b.a.a.a.a.a.a.a.a.a.a.a.a.a.a.a.a.a.a.L.n c b c c c c c c c c c c c c c c c c c D `.`.`.^.`.`.`.`.`.`.`.`.).`.`.(.",
"& & 5 9 0 + u b.a.a.a.a.a.a.a.a.a.a.a.a.a.a.a.a.a.k.U.b M b c c c c c c c c c c c c c c c c c G  X[.].^.`.`.`.`.`.`.`.`.).`.`.(.",
"& 5 5 5 5 * j a.a.a.a.a.a.a.a.a.a.a.a.a.a.a.a.a.a.a.a.c M c b c c c c b c c c c c c c c c N b } oX^.[.'.`.`.`.`.`.`.`.`.`.`.(./."
};
