/* XPM */
static char *Sprite_man_641743001509[] = {
/* columns rows colors chars-per-pixel */
"64 64 54 1 ",
"  c black",
". c #070000",
"X c #000600",
"o c #000402",
"O c #000007",
"+ c #030007",
"@ c #0A0000",
"# c #0A0005",
"$ c #090307",
"% c #0D0800",
"& c #050009",
"* c #00010E",
"= c #03000E",
"- c #06000C",
"; c #0A0509",
": c #0F1200",
"> c #1A1900",
", c #1E1900",
"< c #17120E",
"1 c #040010",
"2 c #040013",
"3 c #0A0014",
"4 c #1F2500",
"5 c #000020",
"6 c #B2BE04",
"7 c #B5B91A",
"8 c #BBB919",
"9 c #B5B12B",
"0 c #BDCC01",
"q c #BBC526",
"w c #C0C207",
"e c #C8C500",
"r c #C1CB00",
"t c #CFCE00",
"y c #CBCC06",
"u c #D0CF01",
"i c #D7CC00",
"p c #D1C906",
"a c #D8CD00",
"s c #D2CF08",
"d c #D6C80D",
"f c #D9CF0B",
"g c #C4D400",
"h c #C9D303",
"j c #CCD200",
"k c #CDD601",
"l c #CED305",
"z c #D1D200",
"x c #D4D100",
"c c #D8DF00",
"v c #D4D91A",
"b c #D3DE18",
"n c #DDE900",
"m c #CDC421",
/* pixels */
"                                                                ",
"                                                                ",
"                                                                ",
"                                                                ",
"                             @@@@@@@@@@@@>                      ",
"                             uuuuuuuuuuuuh                      ",
"                             tuuuuuuuuuuuh                      ",
"                       +juuuuuuuuuuuuuuuuh                      ",
"                       +juuuuuuuuuuuuuuuuh                      ",
"                       +juuuuuuuuuuuuuuuuh                      ",
"                       +juuuuuuuuuuuuuuuuh                      ",
"                       +juuuuuuuuuuuuuuuuh                      ",
"                       &juuuuuuuuuuuuuuuuh                      ",
"                       Ojuuuuuuuuuuuuuuuuh                      ",
"        ++++++++++++++&.cuuuuuuuuuuuuuuuub+++++++++++++++       ",
"        uuuuuuuuuuuuuuuuuuuuuuuuuuuuuuuuuuuuuuuuuuuuuuuuzu+     ",
"        uuuuuuuuuuuuuuuuuuuuuuuuuuuuuuuuuuuuuuuuuuuuuuuuuuo     ",
"        uuuuuuuuuuuuuuuuuuuuuuuuuuuuuuuuuuuuuuuuuuuuuuuuuu+     ",
"        uuuuuuuuuuuuuuuuuuuuuuuuuuuuuuuuuuuuuuzuuuuuuuuuuu.     ",
"        ooooooooooooooo50uuuuOooo$uuuuuuugoooooooooooooo o+     ",
"                       +juuuzo   3zuuuuuuh                      ",
"                       +juuuzzaiamuuuuuuuh                      ",
"                       +juuutuuuuuuuuuuuuh                      ",
"                       +juuuuuuuuuuuuuuuuh                      ",
"                       +juuutuuuuuuuuuuuzh                      ",
"                       *qkkkkeuuuuuuuukkkq                      ",
"                       :o++++duuuuuutz+++                       ",
"                             uuuuuuuut                          ",
"                             uuuuuuuuu                          ",
"                      ;      puuuuuuuu   .                      ",
"                      tuzuuuuuuuuuuuuuuuth                      ",
"                      tuuuuuuuuuuuuuuuuuzh                      ",
"                      tuuuuuuuuuuuuuuuuuuh                      ",
"                      tuuuuuuuuuuuuuuuuuuh                      ",
"               &&auuuuuuuuuuuuuuuh    uuuuuuuu$                 ",
"               &&auuuuuuuuuuuuuuuh    uuuuuuuu#                 ",
"               &&auuuuuuuuuuuuuuuh    uuuuuuuu$                 ",
"               &&auuuuuuuuuuuuuuuh    uuuuuuuz$o                ",
"               &&auuuuuuuuuuuuuuuh    uuuuuuuu#@                ",
"               &&auuuuuuuuuuuuuuuh    uuuuuuuu#o                ",
"                      tuuuuuuuuuuh    suuuuuuu#                 ",
"                      tuuuuuuuuuuh    tjuuuuuu#                 ",
"                      tuuuuuuuuuzh    uuuuuuuu$.                ",
"                      .%7uuuuuuuynlzlzuuu8--$**                 ",
"                      .%7uuuuuuuznzllluuu8----1                 ",
"                       +juuuuuuuuuuutsuuuh                      ",
"                       <rxxxxxxxxfuutzxxxy                      ",
"                       29ggggggggwuuzyggg6                      ",
"                                 .uuuu                          ",
"                                 @uuuu                          ",
"                        4@.......,uuuu                          ",
"                       +huujuuuuztuuuu                          ",
"                       &juuuuuuuyzuuzz                          ",
"                       2vsssssssssssss                          ",
"                       2vsssssssssssss                          ",
"                                                                ",
"                                                                ",
"                                                                ",
"                                                                ",
"                                                                ",
"                                                                ",
"                                                                ",
"                                                                ",
"                                                                "
};
