/* XPM */
static char *Sprite_wall_64_21743002154[] = {
/* columns rows colors chars-per-pixel */
"64 64 49 1 ",
"  c black",
". c #010000",
"X c #030000",
"o c #000200",
"O c #030200",
"+ c #020202",
"@ c #040000",
"# c #070200",
"$ c #060300",
"% c #000400",
"& c #000600",
"* c #000700",
"= c #000402",
"- c #060600",
"; c #000104",
": c #000105",
"> c #000304",
", c #060004",
"< c #080000",
"1 c #0B0000",
"2 c #0C0300",
"3 c #0D0400",
"4 c #000800",
"5 c #000900",
"6 c #000009",
"7 c #04000B",
"8 c #00020E",
"9 c #04000C",
"0 c #04000F",
"q c #0A020D",
"w c #110000",
"e c #100104",
"r c #0B0012",
"t c #090715",
"y c #00001B",
"u c #180019",
"i c #010027",
"p c #220023",
"a c #02CE00",
"s c #04CE00",
"d c #01D101",
"f c #02D100",
"g c #05D100",
"h c #04D301",
"j c #00D400",
"k c #03D800",
"l c #00DF00",
"z c #00D510",
"x c #01E400",
/* pixels */
"                                                                ",
"                                                                ",
"  hhhffjjjjjjjjjjjjjjjjjjjjjjjjjjjjjjjjjjjjjjjjjjjjjjjjjjjjjjjjj",
"  hhhffjjjjjjjjjjjjjjjjjjjjjjjjjjjjjjjjjjjjjjjjjjjjjjjjjjjjjjjjj",
" @hhhhfjjjjjjjjjjjjjjjjjjjjjjjjjjjjjjjjjjjjjjjjjjjjjjjjjjjjjjjjj",
"  hhhffjjjjjjjjjjjjjjjjjjjjjjjjjjjjjjjjjjjjjjjjjjjjjjjjjjjjjjjjj",
"  hhhffjjjjjjjjjjjjjjjjjjjjjjjjjjjjjjjjjjjjjjjjjjjjjjjjjjjjjjjjj",
"@ hhhfffjjjjjjjjjjjjjjjjjjjjjjjjjjjjjjjjjjjjjjjjjjjjjjjjjjjjjjjj",
"  hhhffjjjjjjjjjjjjjjjjjjjjjjjjjjjjjjjjjjjjjjjjjjjjjjjjjjjjjjjjj",
"  hhhffjjjjjjjjjjjjjjjjjjjjjjjjjjjjjjjjjjjjjjjjjjjjjjjjjjjjjjjjj",
"@ hhhffjjjjjjjjjjjjjjjjjjjjjjjjjjjjjjjjjjjjjjjjjjjjjjjjjjjjjjjjj",
"  hhhffjjjjjjjjjjjjjjjjjjjjjjjjjjjjjjjjjjjjjjjjjjjjjjjjjjjjjjjjj",
"#-jhfjjzzzzzzzzzzzzzzzzzzzzzzzzzzzzzzzzzzzzzzzzzzzzzzzzzzzzzzzzz",
"--fffjjzzzzzzzzzzzzzzzzzzzzzzzzzzzzzzzzzzzzzzzzzzzzzzzzzzzzzzzzz",
"uu>>>&5#######@#################################################",
"uu>>>&5########################@################################",
"  55555@@@@@@@@@@@@@@@@@@@@@@@@@@@@@@@@@@@@@@@@@@@@@@@@@@@@@@@@@",
" &55555@@@@@@@@@@@@@@@@@@@@@@@@@@@@@@@@@@@@@@@@@@@@@@@@@@@@@@@@@",
"                                                                ",
"                                                                ",
"                                                                ",
"                                                                ",
"                                                                ",
"                                                                ",
"jjjjjjjjjjjjjjjjjjjjjjjjjjjjjjjjjjjjjjjjjjjfffjj22       >>fjjhh",
"jjjjjjjjjjjjjjjjjjjjjjjjjjjjjjjjjjjjjjjjjjjfffjj22       >>jjjhs",
"jjjjjjjjjjjjjjjjjjjjjjjjjjjjjjjjjjjjjjjjjjjfffjj22       >>fjjsg",
"jjjjjjjjjjjjjjjjjjjjjjjjjjjjjjjjjjjjjjjjjjjfffjj22       >>fjjgg",
"jjjjjjjjjjjjjjjjjjjjjjjjjjjjjjjjjjjjjjjjjjjfffjj22       >>jjjgg",
"jjjjjjjjjjjjjjjjjjjjjjjjjjjjjjjjjjjjjjjjjjjfffjj22       >>fjjgg",
"jjjjjjjjjjjjjjjjjjjjjjjjjjjjjjjjjjjjjjjjjjjfffjj22       >>fjjgg",
"jjjjjjjjjjjjjjjjjjjjjjjjjjjjjjjjjjjjjjjjjjjfffjj22       >>jjjgg",
"jjjfjjjfjjjfjjjjjjjjjjjjjjjjjjjjjjfjjjjjfjjfffjj33       >>jjjhh",
"ssassssssssssssssssssssssssssssssssssssssssxxxkkyy       @@asall",
"sshssshsssssssfsssssssfsssfsssssshshshsshshxxxkkyy       $$aaall",
"&@$ $ $ $ &$@ $ @@&$@ $ @ $ $@@& @@@@ $ @@@www&&ii       pp222&&",
"@ $  $&@&@ $ @$$&@ $$ $$$$ $@$ $&$ $@$ $@ $www&&ii       pp22<5&",
"@@@@@@@@@@@ @@ @@@@ @  @ @@ @ @ @@@ @ @ @@ tttqq &       rr66633",
"@@@  @@@@ @@ @@@@ @@@@@ @@ @@@@  @@@@ @@@ @tttqq>&       rr66633",
"                                                                ",
"                                                                ",
"                                                                ",
"                                                                ",
"5&&&&&&&&&&&&&&&5&&&&&&&&&&&&&&&&&&&&&&&&&&&&&&&&&&&&&&&&&&&&&&&",
"&&&&&&&&&&&&&&&&&&&&&&&&&&&&&&&&&&&&&&&&&&&&&&&&&&&&&&&&&&&&&&&&",
"0000000000000000000000000000000000000000000000000000000000000000",
"0000000000000000000000000000000000000000000000000000000000000000",
"<<<<<<<<<<<<<<<<<<<<<<<<<<<<<<<<<<<<<<<<<<<<<<<<<<<<<<<<<<<<<<<<",
"<<<<<<<<<<<<<<<<<<<<<<<<<<<<<<<<<<<<<<<<<<<<<<<<<<<<<<<<<<<<<<<<",
"jjjjjjjjjjjjjjjjjjjjjjjjjjjjjjjjjjjjjjjjjjjjjjjjjjjjjjjjjjjjjjjj",
"jjjjjjjjjjjjjjjjjjjjjjjjjjjjjjjjjjjjjjjjjjjjjjjjjjjjjjjjjjjjjjjj",
"jjjjjjjjjjjjjjjjjjjjjjjjjjjjjjjjjjjjjjjjjjjjjjjjjjjjjjjjjjjjjjjj",
"jjjjjjjjjjjjjjjjjjjjjjjjjjjjjjjjjjjjjjjjjjjjjjjjjjjjjjjjjjjjjjjj",
"jjjjjjjjjjjjjjjjjjjjjjjjjjjjjjjjjjjjjjjjjjjjjjjjjjjjjjjjjjjjjjjj",
"jjjjjjjjjjjjjjjjjjjjjjjjjjjjjjjjjjjjjjjjjjjjjjjjjjjjjjjjjjjjjjjj",
"jjjjjjjjjjjjjjjjjjjjjjjjjjjjjjjjjjjjjjjjjjjjjjjjjjjjjjjjjjjjjjjj",
"jjjjjjjjjjjjjjjjjjjjjjjjjjjjjjjjjjjjjjjjjjjjjjjjjjjjjjjjjjjjjjjj",
"jjjjjjjjjjjjjjjjjjjjjjjjjjjjjjjjjjjjjjjjjjjjjjjjjjjjjjjjjjjjjjjj",
"jjjjjjjjjjjjjjjjjjjjjjjjjjjjjjjjjjjjjjjjjjjjjjjjjjjjjjjjjjjjjjjj",
"jjjjjjjjjjjjjjjjjjjfjjjjjjjjjjjjjjjjjjjjjjjjjjjjjjjjjjjjjjjjjjjj",
"jffjfjjfjfffjfjjfjjfjfjfjjjjffjfjjffjfjjfjjfjjffjfjjffjjjjffjfjj",
">>>66>>>>>>>>>6>>6>>>>>6>6>>>6>>>>6>>>>66>>>>6>>>>6>>>6>>6>>>>6>",
">>>>>>>>6>>>>>>>>>>>>6>>>>>>>>>>>>>>>>>>>>>>>>>>>>>>>>6>>>>>>>>>",
"e, >, >,   0>, > ,>@>  ,>@>> >80  , >, >, >, >, >, >> &   , >, >"
};
